# xmcd CD database file
# Copyright (C) 1993-1998 Ti Kan
#
# Track frame offsets:
#	150
#	16250
#	32775
#	54000
#	70425
#	89025
#	104900
#	118050
#	133225
#	151025
#	168675
#	184575
#	200750
#	217350
#	233700
#	252000
#
# Disc length: 3624 seconds
#
# Revision: 1
# Processed by: cddbd v1.4b41PL1 Copyright (c) Steve Scherf et al.
# Submitted via: CDValet v3.31 - Copyright (c) 1997 Greg Leichner
#
DISCID=ee0e2610
DTITLE=Shania Twain - Come on Over
DYEAR=1900
DGENRE=
TTITLE0=You're Still the One
TTITLE1=When
TTITLE2=From this Moment On
TTITLE3=Black Eyes, Blue Tears
TTITLE4=I Won't Leave You Lonely
TTITLE5=I'm Holdin' On to Love (To Save my Life)
TTITLE6=Come on Over
TTITLE7=You've Got a Way
TTITLE8=Whatever you Do! Don't!
TTITLE9=Man! I Feel Like a Woman!
TTITLE10=Love Gets me every Time
TTITLE11=Don't be Stupid ( You Know I Love You)
TTITLE12=That Don't Impress Me Much
TTITLE13=Honey, I'm Home
TTITLE14=If you Wanna Touch Her, Ask!
TTITLE15=Rock This Country!
EXTD=
EXTT0=
EXTT1=
EXTT2=
EXTT3=
EXTT4=
EXTT5=
EXTT6=
EXTT7=
EXTT8=
EXTT9=
EXTT10=
EXTT11=
EXTT12=
EXTT13=
EXTT14=
EXTT15=
PLAYORDER=
